<svg xmlns="http://www.w3.org/2000/svg" xmlns:xlink="http://www.w3.org/1999/xlink" x="0" y="0" width="359" height="122" style="
        width:359px;
        height:122px;
        background: transparent;
        fill: none;
">
        
        
        <svg xmlns="http://www.w3.org/2000/svg" class="role-diagram-draw-area"><g class="shapes-region" style="stroke: black; fill: none;"><g class="composite-shape"><g class="real" style="stroke-width: 1; stroke: rgb(0, 0, 0); fill: none; fill-opacity: 1;"><path d=" M23.46,51 C26.12,46.13 27.37,46.11 30,51 C32.63,55.89 33.86,55.92 36.55,51" style="fill: none;"/></g></g><g class="composite-shape"><path class="real" d=" M21,51 C21,46.03 25.03,42 30,42 C34.97,42 39,46.03 39,51 C39,55.97 34.97,60 30,60 C25.03,60 21,55.97 21,51 Z" style="stroke-width: 1; stroke: rgb(0, 0, 0); fill: none; fill-opacity: 1;"/></g><g class="arrow-line"><path class="connection real" stroke-dasharray="" d="  M30,20 L30,42" style="stroke: rgb(0, 0, 0); stroke-width: 1; fill: none; fill-opacity: 1;"/></g><g class="arrow-line"><path class="connection real" stroke-dasharray="" d="  M30,60 L30,100" style="stroke: rgb(0, 0, 0); stroke-width: 1; fill: none; fill-opacity: 1;"/></g><g class="arrow-line"><path class="connection real" stroke-dasharray="" d="  M60,20 L78,20" style="stroke: rgb(0, 0, 0); stroke-width: 1; fill: none; fill-opacity: 1;"/></g><g class="composite-shape"><path class="real" d=" M58,20 C58,18.9 58.9,18 60,18 C61.1,18 62,18.9 62,20 C62,21.1 61.1,22 60,22 C58.9,22 58,21.1 58,20 Z" style="stroke-width: 1; stroke: rgb(0, 0, 0); fill: rgb(0, 0, 0); fill-opacity: 1;"/></g><g class="grouped-shape"><g class="arrow-line"><path class="connection real" stroke-dasharray="" d="  M20,100 L40,100" style="stroke: rgb(0, 0, 0); stroke-width: 1; fill: none; fill-opacity: 1;"/></g><g class="arrow-line"><path class="connection real" stroke-dasharray="" d="  M27,106 L33,106" style="stroke: rgb(0, 0, 0); stroke-width: 1; fill: none; fill-opacity: 1;"/></g><g class="arrow-line"><path class="connection real" stroke-dasharray="" d="  M24,103 L37,103" style="stroke: rgb(0, 0, 0); stroke-width: 1; fill: none; fill-opacity: 1;"/></g></g><g class="composite-shape"><g class="real" style="stroke-width: 1; stroke: rgb(0, 0, 0); fill: none; fill-opacity: 1;"><path d=" M78,20 L83.4,20 C83.48,17.37 84.23,15.13 85.29,14.34 C86.35,13.56 87.5,14.39 88.2,16.45 C88.74,18.05 88.95,20.12 88.8,22.13 C88.8,22.92 88.53,23.55 88.2,23.55 C87.87,23.55 87.6,22.92 87.6,22.13 C87.45,20.12 87.66,18.05 88.2,16.45 C88.82,14.74 89.69,13.77 90.6,13.77 C91.51,13.77 92.38,14.74 93,16.45 C93.54,18.05 93.75,20.12 93.6,22.13 C93.6,22.92 93.33,23.55 93,23.55 C92.67,23.55 92.4,22.92 92.4,22.13 C92.25,20.12 92.46,18.05 93,16.45 C93.62,14.74 94.49,13.77 95.4,13.77 C96.31,13.77 97.18,14.74 97.8,16.45 C98.34,18.05 98.55,20.12 98.4,22.13 C98.4,22.92 98.13,23.55 97.8,23.55 C97.47,23.55 97.2,22.92 97.2,22.13 C97.05,20.12 97.26,18.05 97.8,16.45 C98.5,14.39 99.65,13.56 100.71,14.34 C101.77,15.13 102.52,17.37 102.6,20 L108,20" style="fill: none;"/></g></g><g class="arrow-line"><path class="connection real" stroke-dasharray="" d="  M108,20 L128,20" style="stroke: rgb(0, 0, 0); stroke-width: 1; fill: none; fill-opacity: 1;"/></g><g class="composite-shape"><g class="real" style="stroke-width: 1; stroke: rgb(0, 0, 0); fill: none; fill-opacity: 1;"><path d=" M130,22 L130,52.6" style="fill: none;"/><path d=" M142.5,59.4 L117.5,59.4" style="fill: none;"/><path d=" M142.5,52.6 L117.5,52.6" style="fill: none;"/><path d=" M130,59.4 L130,90" style="fill: none;"/></g></g><g class="arrow-line"><path class="connection real" stroke-dasharray="" d="  M60,90 L130,90" style="stroke: rgb(0, 0, 0); stroke-width: 1; fill: none; fill-opacity: 1;"/></g><g class="composite-shape"><g class="real" style="stroke-width: 1; stroke: rgb(0, 0, 0); fill: none; fill-opacity: 1;"><path d=" M150,20 L155.4,20 C155.48,17.37 156.23,15.13 157.29,14.34 C158.35,13.56 159.5,14.39 160.2,16.45 C160.74,18.05 160.95,20.12 160.8,22.13 C160.8,22.92 160.53,23.55 160.2,23.55 C159.87,23.55 159.6,22.92 159.6,22.13 C159.45,20.12 159.66,18.05 160.2,16.45 C160.82,14.74 161.69,13.77 162.6,13.77 C163.51,13.77 164.38,14.74 165,16.45 C165.54,18.05 165.75,20.12 165.6,22.13 C165.6,22.92 165.33,23.55 165,23.55 C164.67,23.55 164.4,22.92 164.4,22.13 C164.25,20.12 164.46,18.05 165,16.45 C165.62,14.74 166.49,13.77 167.4,13.77 C168.31,13.77 169.18,14.74 169.8,16.45 C170.34,18.05 170.55,20.12 170.4,22.13 C170.4,22.92 170.13,23.55 169.8,23.55 C169.47,23.55 169.2,22.92 169.2,22.13 C169.05,20.12 169.26,18.05 169.8,16.45 C170.5,14.39 171.65,13.56 172.71,14.34 C173.77,15.13 174.52,17.37 174.6,20 L180,20" style="fill: none;"/></g></g><g class="arrow-line"><path class="connection real" stroke-dasharray="" d="  M130,20 L150,20" style="stroke: rgb(0, 0, 0); stroke-width: 1; fill: none; fill-opacity: 1;"/></g><g class="arrow-line"><path class="connection real" stroke-dasharray="" d="  M180,20 L200,20" style="stroke: rgb(0, 0, 0); stroke-width: 1; fill: none; fill-opacity: 1;"/></g><g class="arrow-line"><path class="connection real" stroke-dasharray="" d="  M130,90 L200,90" style="stroke: rgb(0, 0, 0); stroke-width: 1; fill: none; fill-opacity: 1;"/></g><g class="composite-shape"><path class="real" d=" M128,20 C128,18.9 128.9,18 130,18 C131.1,18 132,18.9 132,20 C132,21.1 131.1,22 130,22 C128.9,22 128,21.1 128,20 Z" style="stroke-width: 1; stroke: rgb(0, 0, 0); fill: rgb(0, 0, 0); fill-opacity: 1;"/></g><g class="composite-shape"><path class="real" d=" M198,20 C198,18.9 198.9,18 200,18 C201.1,18 202,18.9 202,20 C202,21.1 201.1,22 200,22 C198.9,22 198,21.1 198,20 Z" style="stroke-width: 1; stroke: rgb(0, 0, 0); fill: rgb(0, 0, 0); fill-opacity: 1;"/></g><g class="composite-shape"><g class="real" style="stroke-width: 1; stroke: rgb(0, 0, 0); fill: none; fill-opacity: 1;"><path d=" M203.06,43.46 L203.06,73.54 L196.94,73.54 L196.94,43.46 L203.06,43.46 Z"/><path d=" M200,35 L200,43.46" style="fill: none;"/><path d=" M200,73.54 L200,82" style="fill: none;"/></g></g><g class="arrow-line"><path class="connection real" stroke-dasharray="" d="  M200,20 L200,35" style="stroke: rgb(0, 0, 0); stroke-width: 1; fill: none; fill-opacity: 1;"/></g><g class="arrow-line"><path class="connection real" stroke-dasharray="" d="  M200,82 L200,90" style="stroke: rgb(0, 0, 0); stroke-width: 1; fill: none; fill-opacity: 1;"/></g><g class="arrow-line"><path class="connection real" stroke-dasharray="" d="  M108,20 L117,20" style="stroke: rgb(0, 0, 0); stroke-width: 1; fill: none; fill-opacity: 1;"/><g stroke="none" fill="#000" transform="matrix(-1,1.2246467991473532e-16,-1.2246467991473532e-16,-1,120,20)" style="stroke: none; fill: rgb(0, 0, 0); stroke-width: 1;"><path d=" M6.25,-3 L0,0 L6.25,3 Z"/></g></g><g class="composite-shape"><g class="real" style="stroke-width: 1; stroke: rgb(0, 0, 0); fill: none; fill-opacity: 1;"><path d=" M60,20 L60,51.5" style="fill: none;"/><path d=" M72.5,58.5 L47.5,58.5" style="fill: none;"/><path d=" M72.5,51.5 L47.5,51.5" style="fill: none;"/><path d=" M60,58.5 L60,90" style="fill: none;"/></g></g><g class="arrow-line"><path class="connection real" stroke-dasharray="" d="  M30,90 L60,90" style="stroke: rgb(0, 0, 0); stroke-width: 1; fill: none; fill-opacity: 1;"/></g><g class="arrow-line"><path class="connection real" stroke-dasharray="" d="  M30,20 L46.4,20" style="stroke: rgb(0, 0, 0); stroke-width: 1; fill: none; fill-opacity: 1;"/><g stroke="none" fill="#000" transform="matrix(-1,1.2246467991473532e-16,-1.2246467991473532e-16,-1,49.400000000000006,20)" style="stroke: none; fill: rgb(0, 0, 0); stroke-width: 1;"><path d=" M6.25,-3 L0,0 L6.25,3 Z"/></g></g><g class="arrow-line"><path class="connection real" stroke-dasharray="" d="  M30,20 L60,20" style="stroke: rgb(0, 0, 0); stroke-width: 1; fill: none; fill-opacity: 1;"/></g><g class="arrow-line"><path class="connection real" stroke-dasharray="" d="  M174.6,20 L187,20" style="stroke: rgb(0, 0, 0); stroke-width: 1; fill: none; fill-opacity: 1;"/><g stroke="none" fill="#000" transform="matrix(-1,1.2246467991473532e-16,-1.2246467991473532e-16,-1,190,19.999999999999996)" style="stroke: none; fill: rgb(0, 0, 0); stroke-width: 1;"><path d=" M6.25,-3 L0,0 L6.25,3 Z"/></g></g><g/></g><g/><g/><g/></svg>
        <svg xmlns="http://www.w3.org/2000/svg" xmlns:xlink="http://www.w3.org/1999/xlink" width="357" height="120" style="width:357px;height:120px;font-family:Asana-Math, Asana;background:transparent;"><g><g><g><g transform="matrix(1,0,0,1,52,12.4)"><path transform="matrix(0.0119,0,0,-0.0119,0,0)" d="M263 689C108 689 29 566 29 324C29 207 50 106 85 57C120 8 176 -20 238 -20C389 -20 465 110 465 366C465 585 400 689 263 689ZM245 654C342 654 381 556 381 316C381 103 343 15 251 15C154 15 113 116 113 360C113 571 150 654 245 654Z" stroke="rgb(0,0,0)" stroke-opacity="1" stroke-width="8" fill="rgb(0,0,0)" fill-opacity="1"></path></g></g></g></g><g><g><g><g transform="matrix(1,0,0,1,4,54.4)"><path transform="matrix(0.0119,0,0,-0.0119,0,0)" d="M310 96L239 624C237 646 241 661 281 662L323 664L323 692L282 691C245 690 217 689 199 689C181 689 153 690 116 691L75 692L75 664L100 662C144 659 152 651 159 614L247 -8L296 -8L674 611C699 651 707 658 736 662L754 664L754 692L724 691C697 690 674 689 658 689C648 689 621 690 580 691L534 692L534 664L560 662C598 659 617 649 617 630C617 619 613 608 601 588Z" stroke="rgb(0,0,0)" stroke-opacity="1" stroke-width="8" fill="rgb(0,0,0)" fill-opacity="1"></path></g></g><g><g><g><g><g transform="matrix(1,0,0,1,12.9375,57.001875)"><path transform="matrix(0.00833,0,0,-0.00833,0,0)" d="M263 689C108 689 29 566 29 324C29 207 50 106 85 57C120 8 176 -20 238 -20C389 -20 465 110 465 366C465 585 400 689 263 689ZM245 654C342 654 381 556 381 316C381 103 343 15 251 15C154 15 113 116 113 360C113 571 150 654 245 654Z" stroke="rgb(0,0,0)" stroke-opacity="1" stroke-width="8" fill="rgb(0,0,0)" fill-opacity="1"></path></g></g></g></g></g></g></g><g><g><g><g transform="matrix(1,0,0,1,125.9375,14.4)"><path transform="matrix(0.0119,0,0,-0.0119,0,0)" d="M418 -3L418 27L366 30C311 33 301 44 301 96L301 700L60 598L67 548L217 614L217 96C217 44 206 33 152 30L96 27L96 -3C250 0 250 0 261 0C292 0 402 -3 418 -3Z" stroke="rgb(0,0,0)" stroke-opacity="1" stroke-width="8" fill="rgb(0,0,0)" fill-opacity="1"></path></g></g></g></g><g><g><g><g transform="matrix(1,0,0,1,197,14.4)"><path transform="matrix(0.0119,0,0,-0.0119,0,0)" d="M16 23L16 -3C203 -3 203 0 239 0C275 0 275 -3 468 -3L468 82C353 77 307 81 122 77L304 270C401 373 431 428 431 503C431 618 353 689 226 689C154 689 105 669 56 619L39 483L68 483L81 529C97 587 133 612 200 612C286 612 341 558 341 473C341 398 299 324 186 204Z" stroke="rgb(0,0,0)" stroke-opacity="1" stroke-width="8" fill="rgb(0,0,0)" fill-opacity="1"></path></g></g></g></g><g><g><g><g transform="matrix(1,0,0,1,147,58.4)"><path transform="matrix(0.0119,0,0,-0.0119,0,0)" d="M45 284C45 90 152 -18 343 -18C439 -18 510 5 600 67C600 67 610 103 610 103C610 103 600 110 600 110C506 53 454 35 376 35C219 35 133 131 133 309C133 447 190 653 418 653C489 653 541 639 597 603L597 519L624 519C629 576 637 619 651 665C575 694 518 706 456 706C276 706 45 578 45 284Z" stroke="rgb(0,0,0)" stroke-opacity="1" stroke-width="8" fill="rgb(0,0,0)" fill-opacity="1"></path></g></g></g></g><g><g><g><g transform="matrix(1,0,0,1,91,10.4)"><path transform="matrix(0.0119,0,0,-0.0119,0,0)" d="M349 664L352 692L238 689C222 689 204 689 161 690L97 692L94 664L141 662C165 661 176 653 176 635L81 55C77 37 65 30 21 23L16 -3L57 -2C88 -1 150 0 170 0C170 0 467 -1 467 -1C467 -1 500 0 500 0C499 25 510 103 523 165L492 165L475 103C466 71 457 54 448 49C435 44 371 39 304 39C255 39 228 40 162 46C165 64 256 605 256 613C263 651 270 658 307 661Z" stroke="rgb(0,0,0)" stroke-opacity="1" stroke-width="8" fill="rgb(0,0,0)" fill-opacity="1"></path></g></g></g></g><g><g><g><g transform="matrix(1,0,0,1,160.9375,10.4)"><path transform="matrix(0.0119,0,0,-0.0119,0,0)" d="M349 664L352 692L238 689C222 689 204 689 161 690L97 692L94 664L141 662C165 661 176 653 176 635L81 55C77 37 65 30 21 23L16 -3L57 -2C88 -1 150 0 170 0C170 0 467 -1 467 -1C467 -1 500 0 500 0C499 25 510 103 523 165L492 165L475 103C466 71 457 54 448 49C435 44 371 39 304 39C255 39 228 40 162 46C165 64 256 605 256 613C263 651 270 658 307 661Z" stroke="rgb(0,0,0)" stroke-opacity="1" stroke-width="8" fill="rgb(0,0,0)" fill-opacity="1"></path></g></g></g></g><g><g><g><g transform="matrix(1,0,0,1,208,60.853125)"><path transform="matrix(0.0119,0,0,-0.0119,0,0)" d="M20 -3C116 -1 174 0 261 0C339 0 456 -1 517 -2L583 -3C585 38 593 95 606 164L580 164L573 142L541 52C496 43 458 39 414 39L133 39L637 672L637 692L475 689L449 689L120 692C120 645 117 606 109 533L135 533C138 555 144 580 156 619L162 639C218 649 256 652 342 652L522 652L20 19Z" stroke="rgb(0,0,0)" stroke-opacity="1" stroke-width="8" fill="rgb(0,0,0)" fill-opacity="1"></path></g></g><g><g><g><g><g transform="matrix(1,0,0,1,216.28125,63.455)"><path transform="matrix(0.00833,0,0,-0.00833,0,0)" d="M349 664L352 692L238 689C222 689 204 689 161 690L97 692L94 664L141 662C165 661 176 653 176 635L81 55C77 37 65 30 21 23L16 -3L57 -2C88 -1 150 0 170 0C170 0 467 -1 467 -1C467 -1 500 0 500 0C499 25 510 103 523 165L492 165L475 103C466 71 457 54 448 49C435 44 371 39 304 39C255 39 228 40 162 46C165 64 256 605 256 613C263 651 270 658 307 661Z" stroke="rgb(0,0,0)" stroke-opacity="1" stroke-width="8" fill="rgb(0,0,0)" fill-opacity="1"></path></g></g></g></g></g></g></g><g><g><g><g transform="matrix(1,0,0,1,78,57.4)"><path transform="matrix(0.0119,0,0,-0.0119,0,0)" d="M45 284C45 90 152 -18 343 -18C439 -18 510 5 600 67C600 67 610 103 610 103C610 103 600 110 600 110C506 53 454 35 376 35C219 35 133 131 133 309C133 447 190 653 418 653C489 653 541 639 597 603L597 519L624 519C629 576 637 619 651 665C575 694 518 706 456 706C276 706 45 578 45 284Z" stroke="rgb(0,0,0)" stroke-opacity="1" stroke-width="8" fill="rgb(0,0,0)" fill-opacity="1"></path></g></g></g></g><g><g><g><g><g><g><g transform="matrix(1,0,0,1,42,38.4078125)"><path transform="matrix(0.0119,0,0,-0.0119,0,0)" d="M103 664L150 662C174 661 185 653 185 636C185 629 179 576 176 559L104 125C89 36 86 31 46 28L10 25L7 -3L39 -3L133 0L227 -3L259 -3L262 25L210 28C184 30 174 37 174 57C174 63 175 74 176 78L265 613C272 652 277 657 316 661L351 664L354 692L248 689C231 689 213 689 170 690L106 692Z" stroke="rgb(0,0,0)" stroke-opacity="1" stroke-width="8" fill="rgb(0,0,0)" fill-opacity="1"></path></g></g></g></g><svg x="42" overflow="visible" y="22" height="6" width="3.953125"><path d="M0.00,5.34 C 0.25 4.02, 0.99 4.02, 1.98 5.01  S 3.71 4.68, 3.95 4.02" style="fill:none;fill-opacity:1;stroke-width:1px;stroke:rgb(0,0,0);stroke-opacity:1;"></path></svg></g><g><g><g><g><g transform="matrix(1,0,0,1,46.3046875,43.408125)"><path transform="matrix(0.00833,0,0,-0.00833,0,0)" d="M263 689C108 689 29 566 29 324C29 207 50 106 85 57C120 8 176 -20 238 -20C389 -20 465 110 465 366C465 585 400 689 263 689ZM245 654C342 654 381 556 381 316C381 103 343 15 251 15C154 15 113 116 113 360C113 571 150 654 245 654Z" stroke="rgb(0,0,0)" stroke-opacity="1" stroke-width="8" fill="rgb(0,0,0)" fill-opacity="1"></path></g></g></g></g></g></g></g><g><g><g><g><g><g><g transform="matrix(1,0,0,1,111,37.4078125)"><path transform="matrix(0.0119,0,0,-0.0119,0,0)" d="M103 664L150 662C174 661 185 653 185 636C185 629 179 576 176 559L104 125C89 36 86 31 46 28L10 25L7 -3L39 -3L133 0L227 -3L259 -3L262 25L210 28C184 30 174 37 174 57C174 63 175 74 176 78L265 613C272 652 277 657 316 661L351 664L354 692L248 689C231 689 213 689 170 690L106 692Z" stroke="rgb(0,0,0)" stroke-opacity="1" stroke-width="8" fill="rgb(0,0,0)" fill-opacity="1"></path></g></g></g></g><svg x="111" overflow="visible" y="21" height="6" width="3.953125"><path d="M0.00,5.34 C 0.25 4.02, 0.99 4.02, 1.98 5.01  S 3.71 4.68, 3.95 4.02" style="fill:none;fill-opacity:1;stroke-width:1px;stroke:rgb(0,0,0);stroke-opacity:1;"></path></svg></g><g><g><g><g><g transform="matrix(1,0,0,1,115.3046875,42.408125)"><path transform="matrix(0.00833,0,0,-0.00833,0,0)" d="M418 -3L418 27L366 30C311 33 301 44 301 96L301 700L60 598L67 548L217 614L217 96C217 44 206 33 152 30L96 27L96 -3C250 0 250 0 261 0C292 0 402 -3 418 -3Z" stroke="rgb(0,0,0)" stroke-opacity="1" stroke-width="8" fill="rgb(0,0,0)" fill-opacity="1"></path></g></g></g></g></g></g></g><g><g><g><g><g><g><g transform="matrix(1,0,0,1,179.59375,37.4078125)"><path transform="matrix(0.0119,0,0,-0.0119,0,0)" d="M103 664L150 662C174 661 185 653 185 636C185 629 179 576 176 559L104 125C89 36 86 31 46 28L10 25L7 -3L39 -3L133 0L227 -3L259 -3L262 25L210 28C184 30 174 37 174 57C174 63 175 74 176 78L265 613C272 652 277 657 316 661L351 664L354 692L248 689C231 689 213 689 170 690L106 692Z" stroke="rgb(0,0,0)" stroke-opacity="1" stroke-width="8" fill="rgb(0,0,0)" fill-opacity="1"></path></g></g></g></g><svg x="179.59375" overflow="visible" y="21" height="6" width="3.953125"><path d="M0.00,5.34 C 0.25 4.02, 0.99 4.02, 1.98 5.01  S 3.71 4.68, 3.95 4.02" style="fill:none;fill-opacity:1;stroke-width:1px;stroke:rgb(0,0,0);stroke-opacity:1;"></path></svg></g><g><g><g><g><g transform="matrix(1,0,0,1,183.8984375,42.408125)"><path transform="matrix(0.00833,0,0,-0.00833,0,0)" d="M16 23L16 -3C203 -3 203 0 239 0C275 0 275 -3 468 -3L468 82C353 77 307 81 122 77L304 270C401 373 431 428 431 503C431 618 353 689 226 689C154 689 105 669 56 619L39 483L68 483L81 529C97 587 133 612 200 612C286 612 341 558 341 473C341 398 299 324 186 204Z" stroke="rgb(0,0,0)" stroke-opacity="1" stroke-width="8" fill="rgb(0,0,0)" fill-opacity="1"></path></g></g></g></g></g></g></g></svg>
</svg>
