<svg xmlns="http://www.w3.org/2000/svg" xmlns:xlink="http://www.w3.org/1999/xlink" x="0" y="0" width="412" height="145" style="
        width:412px;
        height:145px;
        background: transparent;
        fill: none;
">
        
        
        <svg xmlns="http://www.w3.org/2000/svg" class="role-diagram-draw-area"><g class="shapes-region" style="stroke: black; fill: none;"><g class="arrow-line"><path class="connection real" stroke-dasharray="" d="  M60,20 L230,20" style="stroke: rgb(0, 0, 0); stroke-width: 4; fill: none; fill-opacity: 1;"/></g><g class="arrow-line"><path class="connection real" stroke-dasharray="" d="  M60,100 L230,100" style="stroke: rgb(0, 0, 0); stroke-width: 4; fill: none; fill-opacity: 1;"/></g><g class="arrow-line"><path class="connection real" stroke-dasharray="" d="  M230,120 L257,120" style="stroke: rgb(0, 0, 0); stroke-width: 1; fill: none; fill-opacity: 1;"/><g stroke="none" fill="#000" transform="matrix(-1,1.2246467991473532e-16,-1.2246467991473532e-16,-1,260,120)" style="stroke: none; fill: rgb(0, 0, 0); stroke-width: 1;"><path d=" M6.25,-3 L0,0 L6.25,3 Z"/></g></g><g class="arrow-line"><path class="connection real" stroke-dasharray="" d="  M230,110 L230,130" style="stroke: rgb(0, 0, 0); stroke-width: 2; fill: none; fill-opacity: 1;"/></g><g class="grouped-shape"><g class="composite-shape"><g class="real" style="stroke-width: 1; stroke: rgb(0, 0, 0); fill: none; fill-opacity: 1;"><path d=" M48.73,60 C51.69,54.59 53.08,54.56 56,60 C58.92,65.44 60.29,65.47 63.27,60" style="fill: none;"/></g></g><g class="composite-shape"><path class="real" d=" M46,60 C46,54.48 50.48,50 56,50 C61.52,50 66,54.48 66,60 C66,65.52 61.52,70 56,70 C50.48,70 46,65.52 46,60 Z" style="stroke-width: 1; stroke: rgb(0, 0, 0); fill: none; fill-opacity: 1;"/></g></g><g class="arrow-line"><path class="connection real" stroke-dasharray="" d="  M60,20 L60,50" style="stroke: rgb(0, 0, 0); stroke-width: 1; fill: none; fill-opacity: 1;"/></g><g class="arrow-line"><path class="connection real" stroke-dasharray="" d="  M60,70 L60,100" style="stroke: rgb(0, 0, 0); stroke-width: 1; fill: none; fill-opacity: 1;"/></g><g class="composite-shape"><g class="real" style="stroke-width: 1; stroke: rgb(0, 0, 0); fill: none; fill-opacity: 1;"><path d=" M232.71,50.79 L232.84,69.98 L227.16,70.02 L227.04,50.82 L232.71,50.79 Z"/><path d=" M229.84,45.4 L229.88,50.8" style="fill: none;"/><path d=" M230,70 L230.03,75.4" style="fill: none;"/></g></g><g class="arrow-line"><path class="connection real" stroke-dasharray="" d="  M230,20 L229.84,45.4" style="stroke: rgb(0, 0, 0); stroke-width: 1; fill: none; fill-opacity: 1;"/></g><g class="arrow-line"><path class="connection real" stroke-dasharray="" d="  M230.16,74.6 L230,100" style="stroke: rgb(0, 0, 0); stroke-width: 1; fill: none; fill-opacity: 1;"/></g><g class="arrow-line"><path class="connection real" stroke-dasharray="" d="  M63,120 L227,120" style="stroke: rgb(0, 0, 0); stroke-width: 1; fill: none; fill-opacity: 1;"/><g stroke="none" fill="#000" transform="matrix(-1,1.2246467991473532e-16,-1.2246467991473532e-16,-1,229.99999999999997,120)" style="stroke: none; fill: rgb(0, 0, 0); stroke-width: 1;"><path d=" M7.14,-3.43 L0,0 L7.14,3.43 Z"/></g><g stroke="none" fill="#000" transform="matrix(1,0,0,1,60,120)" style="stroke: none; fill: rgb(0, 0, 0); stroke-width: 1;"><path d=" M7.14,-3.43 L0,0 L7.14,3.43 Z"/></g></g><g/></g><g/><g/><g/></svg>
        <svg xmlns="http://www.w3.org/2000/svg" xmlns:xlink="http://www.w3.org/1999/xlink" width="410" height="143" style="width:410px;height:143px;font-family:Asana-Math, Asana;background:transparent;"><g><g><g><g transform="matrix(1,0,0,1,127.5,60.9)"><path transform="matrix(0.0119,0,0,-0.0119,0,0)" d="M20 -3C116 -1 174 0 261 0C339 0 456 -1 517 -2L583 -3C585 38 593 95 606 164L580 164L573 142L541 52C496 43 458 39 414 39L133 39L637 672L637 692L475 689L449 689L120 692C120 645 117 606 109 533L135 533C138 555 144 580 156 619L162 639C218 649 256 652 342 652L522 652L20 19Z" stroke="rgb(0,0,0)" stroke-opacity="1" stroke-width="8" fill="rgb(0,0,0)" fill-opacity="1"></path></g></g><g><g><g><g><g transform="matrix(1,0,0,1,135.78125,63.501875)"><path transform="matrix(0.00833,0,0,-0.00833,0,0)" d="M263 689C108 689 29 566 29 324C29 207 50 106 85 57C120 8 176 -20 238 -20C389 -20 465 110 465 366C465 585 400 689 263 689ZM245 654C342 654 381 556 381 316C381 103 343 15 251 15C154 15 113 116 113 360C113 571 150 654 245 654Z" stroke="rgb(0,0,0)" stroke-opacity="1" stroke-width="8" fill="rgb(0,0,0)" fill-opacity="1"></path></g></g></g></g></g></g></g><g><g><g><g transform="matrix(1,0,0,1,263.5,126)"><path transform="matrix(0.017,0,0,-0.017,0,0)" d="M9 1C24 -7 40 -11 52 -11C85 -11 124 18 155 65L231 182L242 113C255 28 278 -11 314 -11C336 -11 368 6 400 35L449 79L440 98C404 68 379 53 363 53C348 53 335 63 325 83C316 102 305 139 300 168L282 269L317 318C364 383 391 406 422 406C438 406 450 398 455 383L469 387L484 472C472 479 463 482 454 482C414 482 374 446 312 354L275 299L269 347C257 446 230 482 171 482C145 482 123 474 114 461L56 378L73 368C103 402 123 416 142 416C175 416 197 375 214 277L225 215L185 153C142 86 108 54 80 54C65 54 54 58 52 63L41 91L21 88C21 53 13 27 9 1Z" stroke="rgb(0,0,0)" stroke-opacity="1" stroke-width="8" fill="rgb(0,0,0)" fill-opacity="1"></path></g></g></g></g><g><g><g><g transform="matrix(1,0,0,1,238.5,61.9)"><path transform="matrix(0.0119,0,0,-0.0119,0,0)" d="M20 -3C116 -1 174 0 261 0C339 0 456 -1 517 -2L583 -3C585 38 593 95 606 164L580 164L573 142L541 52C496 43 458 39 414 39L133 39L637 672L637 692L475 689L449 689L120 692C120 645 117 606 109 533L135 533C138 555 144 580 156 619L162 639C218 649 256 652 342 652L522 652L20 19Z" stroke="rgb(0,0,0)" stroke-opacity="1" stroke-width="8" fill="rgb(0,0,0)" fill-opacity="1"></path></g></g><g><g><g><g><g transform="matrix(1,0,0,1,246.78125,64.501875)"><path transform="matrix(0.00833,0,0,-0.00833,0,0)" d="M251 722L239 733C187 707 151 698 79 691L75 670L123 670C147 670 157 663 157 648C157 645 157 640 154 622C143 567 70 182 55 132C42 82 36 52 36 31C36 6 47 -9 66 -9C92 -9 128 12 226 85L216 103L190 86C161 67 139 56 129 56C122 56 116 66 116 76C116 82 117 89 120 104Z" stroke="rgb(0,0,0)" stroke-opacity="1" stroke-width="8" fill="rgb(0,0,0)" fill-opacity="1"></path></g></g></g></g></g></g></g><g><g><g><g transform="matrix(1,0,0,1,131.5,132.9)"><path transform="matrix(0.0119,0,0,-0.0119,0,0)" d="M251 722L239 733C187 707 151 698 79 691L75 670L123 670C147 670 157 663 157 648C157 645 157 640 154 622C143 567 70 182 55 132C42 82 36 52 36 31C36 6 47 -9 66 -9C92 -9 128 12 226 85L216 103L190 86C161 67 139 56 129 56C122 56 116 66 116 76C116 82 117 89 120 104Z" stroke="rgb(0,0,0)" stroke-opacity="1" stroke-width="8" fill="rgb(0,0,0)" fill-opacity="1"></path></g></g><g><g><g><g><g transform="matrix(1,0,0,1,135.1484375,135.501875)"><path transform="matrix(0.00833,0,0,-0.00833,0,0)" d="M263 689C108 689 29 566 29 324C29 207 50 106 85 57C120 8 176 -20 238 -20C389 -20 465 110 465 366C465 585 400 689 263 689ZM245 654C342 654 381 556 381 316C381 103 343 15 251 15C154 15 113 116 113 360C113 571 150 654 245 654Z" stroke="rgb(0,0,0)" stroke-opacity="1" stroke-width="8" fill="rgb(0,0,0)" fill-opacity="1"></path></g></g></g></g></g></g></g></svg>
</svg>
