<svg xmlns="http://www.w3.org/2000/svg" xmlns:xlink="http://www.w3.org/1999/xlink" x="0" y="0" width="412" height="170" style="
        width:412px;
        height:170px;
        background: transparent;
        fill: none;
">
        
        
        <svg xmlns="http://www.w3.org/2000/svg" class="role-diagram-draw-area"><g class="shapes-region" style="stroke: black; fill: none;"><g class="arrow-line"><path class="connection real" stroke-dasharray="" d="  M51,48 L221,48" style="stroke: rgb(0, 0, 0); stroke-width: 4; fill: none; fill-opacity: 1;"/></g><g class="arrow-line"><path class="connection real" stroke-dasharray="" d="  M51,128 L221,128" style="stroke: rgb(0, 0, 0); stroke-width: 4; fill: none; fill-opacity: 1;"/></g><g class="arrow-line"><path class="connection real" stroke-dasharray="" d="  M223,48 L281,48" style="stroke: rgb(0, 0, 0); stroke-width: 4; fill: none; fill-opacity: 1;"/></g><g class="arrow-line"><path class="connection real" stroke-dasharray="" d="  M223,128 L281,128" style="stroke: rgb(0, 0, 0); stroke-width: 4; fill: none; fill-opacity: 1;"/></g><g class="arrow-line"><path class="connection real" stroke-dasharray="" d="  M283,128 L341,128" style="stroke: rgb(0, 0, 0); stroke-width: 4; fill: none; fill-opacity: 1;"/></g><g class="arrow-line"><path class="connection real" stroke-dasharray="" d="  M283,48 L341,48" style="stroke: rgb(0, 0, 0); stroke-width: 4; fill: none; fill-opacity: 1;"/></g><g class="arrow-line"><path class="connection real" stroke-dasharray="" d="  M341,48 L356,48" style="stroke: rgb(0, 0, 0); stroke-width: 1; fill: none; fill-opacity: 1;"/><g stroke="none" fill="#000" transform="matrix(-1,1.2246467991473532e-16,-1.2246467991473532e-16,-1,359,48)" style="stroke: none; fill: rgb(0, 0, 0); stroke-width: 1;"><path d=" M7.14,-3.43 L0,0 L7.14,3.43 Z"/></g></g><g class="arrow-line"><path class="connection real" stroke-dasharray="" d="  M341,128 L356,128" style="stroke: rgb(0, 0, 0); stroke-width: 1; fill: none; fill-opacity: 1;"/><g stroke="none" fill="#000" transform="matrix(-1,1.2246467991473532e-16,-1.2246467991473532e-16,-1,359,127.99999999999999)" style="stroke: none; fill: rgb(0, 0, 0); stroke-width: 1;"><path d=" M7.14,-3.43 L0,0 L7.14,3.43 Z"/></g></g><g class="arrow-line"><path class="connection real" stroke-dasharray="" d="  M224,38 L276,38" style="stroke: rgb(0, 0, 0); stroke-width: 1; fill: none; fill-opacity: 1;"/><g stroke="none" fill="#000" transform="matrix(-1,1.2246467991473532e-16,-1.2246467991473532e-16,-1,279,38.00000000000001)" style="stroke: none; fill: rgb(0, 0, 0); stroke-width: 1;"><path d=" M7.14,-3.43 L0,0 L7.14,3.43 Z"/></g><g stroke="none" fill="#000" transform="matrix(1,0,0,1,221,38)" style="stroke: none; fill: rgb(0, 0, 0); stroke-width: 1;"><path d=" M7.14,-3.43 L0,0 L7.14,3.43 Z"/></g></g><g class="arrow-line"><path class="connection real" stroke-dasharray="" d="  M281,150 L308,150" style="stroke: rgb(0, 0, 0); stroke-width: 1; fill: none; fill-opacity: 1;"/><g stroke="none" fill="#000" transform="matrix(-1,1.2246467991473532e-16,-1.2246467991473532e-16,-1,311,150.00000000000003)" style="stroke: none; fill: rgb(0, 0, 0); stroke-width: 1;"><path d=" M6.25,-3 L0,0 L6.25,3 Z"/></g></g><g class="arrow-line"><path class="connection real" stroke-dasharray="" d="  M281,140 L281,160" style="stroke: rgb(0, 0, 0); stroke-width: 2; fill: none; fill-opacity: 1;"/></g><g class="arrow-line"><path class="connection real" stroke-dasharray="" d="  M54,38 L218,38" style="stroke: rgb(0, 0, 0); stroke-width: 1; fill: none; fill-opacity: 1;"/><g stroke="none" fill="#000" transform="matrix(-1,1.2246467991473532e-16,-1.2246467991473532e-16,-1,221,38)" style="stroke: none; fill: rgb(0, 0, 0); stroke-width: 1;"><path d=" M7.14,-3.43 L0,0 L7.14,3.43 Z"/></g><g stroke="none" fill="#000" transform="matrix(1,0,0,1,51,38)" style="stroke: none; fill: rgb(0, 0, 0); stroke-width: 1;"><path d=" M7.14,-3.43 L0,0 L7.14,3.43 Z"/></g></g><g class="grouped-shape"><g class="composite-shape"><g class="real" style="stroke-width: 1; stroke: rgb(0, 0, 0); fill: none; fill-opacity: 1;"><path d=" M43.73,88 C46.69,82.59 48.08,82.56 51,88 C53.92,93.44 55.29,93.47 58.27,88" style="fill: none;"/></g></g><g class="composite-shape"><path class="real" d=" M41,88 C41,82.48 45.48,78 51,78 C56.52,78 61,82.48 61,88 C61,93.52 56.52,98 51,98 C45.48,98 41,93.52 41,88 Z" style="stroke-width: 1; stroke: rgb(0, 0, 0); fill: none; fill-opacity: 1;"/></g></g><g class="arrow-line"><path class="connection real" stroke-dasharray="" d="  M51,48 L51,78" style="stroke: rgb(0, 0, 0); stroke-width: 1; fill: none; fill-opacity: 1;"/></g><g class="arrow-line"><path class="connection real" stroke-dasharray="" d="  M51,98 L51,128" style="stroke: rgb(0, 0, 0); stroke-width: 1; fill: none; fill-opacity: 1;"/></g><g/></g><g/><g/><g/></svg>
        <svg xmlns="http://www.w3.org/2000/svg" xmlns:xlink="http://www.w3.org/1999/xlink" width="410" height="168" style="width:410px;height:168px;font-family:Asana-Math, Asana;background:transparent;"><g><g><g><g transform="matrix(1,0,0,1,123,89.56668701171876)"><path transform="matrix(0.0119,0,0,-0.0119,0,0)" d="M20 -3C116 -1 174 0 261 0C339 0 456 -1 517 -2L583 -3C585 38 593 95 606 164L580 164L573 142L541 52C496 43 458 39 414 39L133 39L637 672L637 692L475 689L449 689L120 692C120 645 117 606 109 533L135 533C138 555 144 580 156 619L162 639C218 649 256 652 342 652L522 652L20 19Z" stroke="rgb(0,0,0)" stroke-opacity="1" stroke-width="8" fill="rgb(0,0,0)" fill-opacity="1"></path></g></g><g><g><g><g><g transform="matrix(1,0,0,1,131.28125,91.99668701171875)"><path transform="matrix(0.00833,0,0,-0.00833,0,0)" d="M263 689C108 689 29 566 29 324C29 207 50 106 85 57C120 8 176 -20 238 -20C389 -20 465 110 465 366C465 585 400 689 263 689ZM245 654C342 654 381 556 381 316C381 103 343 15 251 15C154 15 113 116 113 360C113 571 150 654 245 654Z" stroke="rgb(0,0,0)" stroke-opacity="1" stroke-width="8" fill="rgb(0,0,0)" fill-opacity="1"></path></g></g></g></g></g></g></g><g><g><g><g transform="matrix(1,0,0,1,293,89.228125)"><path transform="matrix(0.0119,0,0,-0.0119,0,0)" d="M20 -3C116 -1 174 0 261 0C339 0 456 -1 517 -2L583 -3C585 38 593 95 606 164L580 164L573 142L541 52C496 43 458 39 414 39L133 39L637 672L637 692L475 689L449 689L120 692C120 645 117 606 109 533L135 533C138 555 144 580 156 619L162 639C218 649 256 652 342 652L522 652L20 19Z" stroke="rgb(0,0,0)" stroke-opacity="1" stroke-width="8" fill="rgb(0,0,0)" fill-opacity="1"></path></g></g><g><g><g><g><g transform="matrix(1,0,0,1,301.28125,91.658125)"><path transform="matrix(0.00833,0,0,-0.00833,0,0)" d="M16 23L16 -3C203 -3 203 0 239 0C275 0 275 -3 468 -3L468 82C353 77 307 81 122 77L304 270C401 373 431 428 431 503C431 618 353 689 226 689C154 689 105 669 56 619L39 483L68 483L81 529C97 587 133 612 200 612C286 612 341 558 341 473C341 398 299 324 186 204Z" stroke="rgb(0,0,0)" stroke-opacity="1" stroke-width="8" fill="rgb(0,0,0)" fill-opacity="1"></path></g></g></g></g></g><g><g transform="matrix(1,0,0,1,309.7239990234375,89.228125)"><path transform="matrix(0.0119,0,0,-0.0119,0,0)" d="M604 347L604 406L65 406L65 347ZM604 134L604 193L65 193L65 134Z" stroke="rgb(0,0,0)" stroke-opacity="1" stroke-width="8" fill="rgb(0,0,0)" fill-opacity="1"></path></g></g><g><g><g><g><g transform="matrix(1,0,0,1,322.4271240234375,79.56668701171876)"><path transform="matrix(0.0119,0,0,-0.0119,0,0)" d="M20 -3C116 -1 174 0 261 0C339 0 456 -1 517 -2L583 -3C585 38 593 95 606 164L580 164L573 142L541 52C496 43 458 39 414 39L133 39L637 672L637 692L475 689L449 689L120 692C120 645 117 606 109 533L135 533C138 555 144 580 156 619L162 639C218 649 256 652 342 652L522 652L20 19Z" stroke="rgb(0,0,0)" stroke-opacity="1" stroke-width="8" fill="rgb(0,0,0)" fill-opacity="1"></path></g></g><g><g><g><g><g transform="matrix(1,0,0,1,330.7083740234375,81.99668701171875)"><path transform="matrix(0.00833,0,0,-0.00833,0,0)" d="M263 689C108 689 29 566 29 324C29 207 50 106 85 57C120 8 176 -20 238 -20C389 -20 465 110 465 366C465 585 400 689 263 689ZM245 654C342 654 381 556 381 316C381 103 343 15 251 15C154 15 113 116 113 360C113 571 150 654 245 654Z" stroke="rgb(0,0,0)" stroke-opacity="1" stroke-width="8" fill="rgb(0,0,0)" fill-opacity="1"></path></g></g></g></g></g></g></g><g><g><g><g transform="matrix(1,0,0,1,326.0364990234375,98.51459350585938)"><path transform="matrix(0.0119,0,0,-0.0119,0,0)" d="M462 224C462 345 355 366 308 374C388 436 418 482 418 541C418 630 344 689 233 689C165 689 120 670 72 622L43 498L74 498L92 554C103 588 166 622 218 622C283 622 336 569 336 506C336 431 277 368 206 368C198 368 187 369 174 370L159 371L147 318L154 312C192 329 211 334 238 334C321 334 369 281 369 190C369 88 308 21 215 21C169 21 128 36 98 64C74 86 61 109 42 163L15 153C36 92 44 56 50 6C103 -12 147 -20 184 -20C307 -20 462 87 462 224Z" stroke="rgb(0,0,0)" stroke-opacity="1" stroke-width="8" fill="rgb(0,0,0)" fill-opacity="1"></path></g></g></g></g><line style="fill:none;stroke-width:1px;stroke:rgb(0, 0, 0);" x1="322.4271240234375" y1="86.35418701171875" x2="335.5833740234375" y2="86.35418701171875"></line></g></g></g><g><g><g><g transform="matrix(1,0,0,1,361,53)"><path transform="matrix(0.017,0,0,-0.017,0,0)" d="M843 284C843 380 792 461 687 461C600 461 516 378 463 315C419 387 334 463 245 463C129 463 55 352 55 244C55 148 109 66 213 66C296 66 389 152 436 216C485 143 561 65 655 65C771 65 843 179 843 284ZM783 236C783 166 748 108 673 108C594 108 522 226 481 284C513 332 597 409 656 409C740 409 783 307 783 236ZM418 245C387 198 301 122 243 122C159 122 117 224 117 296C117 366 153 424 229 424C300 424 387 304 418 245Z" stroke="rgb(0,0,0)" stroke-opacity="1" stroke-width="8" fill="rgb(0,0,0)" fill-opacity="1"></path></g></g></g></g><g><g><g><g transform="matrix(1,0,0,1,363,133)"><path transform="matrix(0.017,0,0,-0.017,0,0)" d="M843 284C843 380 792 461 687 461C600 461 516 378 463 315C419 387 334 463 245 463C129 463 55 352 55 244C55 148 109 66 213 66C296 66 389 152 436 216C485 143 561 65 655 65C771 65 843 179 843 284ZM783 236C783 166 748 108 673 108C594 108 522 226 481 284C513 332 597 409 656 409C740 409 783 307 783 236ZM418 245C387 198 301 122 243 122C159 122 117 224 117 296C117 366 153 424 229 424C300 424 387 304 418 245Z" stroke="rgb(0,0,0)" stroke-opacity="1" stroke-width="8" fill="rgb(0,0,0)" fill-opacity="1"></path></g></g></g></g><g><g><g><g transform="matrix(1,0,0,1,224,24.56668701171875)"><path transform="matrix(0.0119,0,0,-0.0119,0,0)" d="M251 722L239 733C187 707 151 698 79 691L75 670L123 670C147 670 157 663 157 648C157 645 157 640 154 622C143 567 70 182 55 132C42 82 36 52 36 31C36 6 47 -9 66 -9C92 -9 128 12 226 85L216 103L190 86C161 67 139 56 129 56C122 56 116 66 116 76C116 82 117 89 120 104Z" stroke="rgb(0,0,0)" stroke-opacity="1" stroke-width="8" fill="rgb(0,0,0)" fill-opacity="1"></path></g></g><g><g><g><g><g transform="matrix(1,0,0,1,227.65106201171875,26.99668701171875)"><path transform="matrix(0.00833,0,0,-0.00833,0,0)" d="M418 -3L418 27L366 30C311 33 301 44 301 96L301 700L60 598L67 548L217 614L217 96C217 44 206 33 152 30L96 27L96 -3C250 0 250 0 261 0C292 0 402 -3 418 -3Z" stroke="rgb(0,0,0)" stroke-opacity="1" stroke-width="8" fill="rgb(0,0,0)" fill-opacity="1"></path></g></g></g></g></g><g><g transform="matrix(1,0,0,1,236.09375,24.56668701171875)"><path transform="matrix(0.0119,0,0,-0.0119,0,0)" d="M604 347L604 406L65 406L65 347ZM604 134L604 193L65 193L65 134Z" stroke="rgb(0,0,0)" stroke-opacity="1" stroke-width="8" fill="rgb(0,0,0)" fill-opacity="1"></path></g></g><g><g transform="matrix(1,0,0,1,247.609375,24.56668701171875)"><path transform="matrix(0.0119,0,0,-0.0119,0,0)" d="M462 224C462 345 355 366 308 374C388 436 418 482 418 541C418 630 344 689 233 689C165 689 120 670 72 622L43 498L74 498L92 554C103 588 166 622 218 622C283 622 336 569 336 506C336 431 277 368 206 368C198 368 187 369 174 370L159 371L147 318L154 312C192 329 211 334 238 334C321 334 369 281 369 190C369 88 308 21 215 21C169 21 128 36 98 64C74 86 61 109 42 163L15 153C36 92 44 56 50 6C103 -12 147 -20 184 -20C307 -20 462 87 462 224ZM708 656L708 648C710 643 712 639 717 637C734 642 765 653 781 653C833 653 842 500 846 460C718 320 619 161 524 -2L534 -16C559 -5 584 4 610 13C653 159 760 308 852 428C860 365 883 13 900 -6C955 -42 1027 44 1069 74L1069 87L1057 87L1057 88C1040 77 1011 55 990 55C951 55 943 188 938 219C923 326 898 672 882 689C846 728 750 667 708 656Z" stroke="rgb(0,0,0)" stroke-opacity="1" stroke-width="8" fill="rgb(0,0,0)" fill-opacity="1"></path></g></g><g><g><g><g><g transform="matrix(1,0,0,1,261.2552490234375,26.99668701171875)"><path transform="matrix(0.00833,0,0,-0.00833,0,0)" d="M418 -3L418 27L366 30C311 33 301 44 301 96L301 700L60 598L67 548L217 614L217 96C217 44 206 33 152 30L96 27L96 -3C250 0 250 0 261 0C292 0 402 -3 418 -3Z" stroke="rgb(0,0,0)" stroke-opacity="1" stroke-width="8" fill="rgb(0,0,0)" fill-opacity="1"></path></g></g></g></g></g><g><g transform="matrix(1,0,0,1,268.5052490234375,24.56668701171875)"><path transform="matrix(0.0119,0,0,-0.0119,0,0)" d="M297 714L242 714L-37 -169L18 -169Z" stroke="rgb(0,0,0)" stroke-opacity="1" stroke-width="8" fill="rgb(0,0,0)" fill-opacity="1"></path></g></g><g><g transform="matrix(1,0,0,1,274.2864990234375,24.56668701171875)"><path transform="matrix(0.0119,0,0,-0.0119,0,0)" d="M280 181L280 106C280 46 269 32 220 30L158 27L158 -3C291 0 291 0 315 0C339 0 339 0 472 -3L472 27L424 30C375 33 364 46 364 106L364 181C423 181 444 180 472 177L472 248L364 245L365 697L285 667L2 204L2 181ZM280 245L65 245L280 597Z" stroke="rgb(0,0,0)" stroke-opacity="1" stroke-width="8" fill="rgb(0,0,0)" fill-opacity="1"></path></g></g></g></g><g><g><g><g transform="matrix(1,0,0,1,317,155)"><path transform="matrix(0.017,0,0,-0.017,0,0)" d="M9 1C24 -7 40 -11 52 -11C85 -11 124 18 155 65L231 182L242 113C255 28 278 -11 314 -11C336 -11 368 6 400 35L449 79L440 98C404 68 379 53 363 53C348 53 335 63 325 83C316 102 305 139 300 168L282 269L317 318C364 383 391 406 422 406C438 406 450 398 455 383L469 387L484 472C472 479 463 482 454 482C414 482 374 446 312 354L275 299L269 347C257 446 230 482 171 482C145 482 123 474 114 461L56 378L73 368C103 402 123 416 142 416C175 416 197 375 214 277L225 215L185 153C142 86 108 54 80 54C65 54 54 58 52 63L41 91L21 88C21 53 13 27 9 1Z" stroke="rgb(0,0,0)" stroke-opacity="1" stroke-width="8" fill="rgb(0,0,0)" fill-opacity="1"></path></g></g></g></g><g><g><g><g transform="matrix(1,0,0,1,230,89.228125)"><path transform="matrix(0.0119,0,0,-0.0119,0,0)" d="M20 -3C116 -1 174 0 261 0C339 0 456 -1 517 -2L583 -3C585 38 593 95 606 164L580 164L573 142L541 52C496 43 458 39 414 39L133 39L637 672L637 692L475 689L449 689L120 692C120 645 117 606 109 533L135 533C138 555 144 580 156 619L162 639C218 649 256 652 342 652L522 652L20 19Z" stroke="rgb(0,0,0)" stroke-opacity="1" stroke-width="8" fill="rgb(0,0,0)" fill-opacity="1"></path></g></g><g><g><g><g><g transform="matrix(1,0,0,1,238.28125,91.658125)"><path transform="matrix(0.00833,0,0,-0.00833,0,0)" d="M418 -3L418 27L366 30C311 33 301 44 301 96L301 700L60 598L67 548L217 614L217 96C217 44 206 33 152 30L96 27L96 -3C250 0 250 0 261 0C292 0 402 -3 418 -3Z" stroke="rgb(0,0,0)" stroke-opacity="1" stroke-width="8" fill="rgb(0,0,0)" fill-opacity="1"></path></g></g></g></g></g><g><g transform="matrix(1,0,0,1,246.7239990234375,89.228125)"><path transform="matrix(0.0119,0,0,-0.0119,0,0)" d="M604 347L604 406L65 406L65 347ZM604 134L604 193L65 193L65 134Z" stroke="rgb(0,0,0)" stroke-opacity="1" stroke-width="8" fill="rgb(0,0,0)" fill-opacity="1"></path></g></g><g><g><g><g><g transform="matrix(1,0,0,1,259.4271240234375,79.56668701171876)"><path transform="matrix(0.0119,0,0,-0.0119,0,0)" d="M20 -3C116 -1 174 0 261 0C339 0 456 -1 517 -2L583 -3C585 38 593 95 606 164L580 164L573 142L541 52C496 43 458 39 414 39L133 39L637 672L637 692L475 689L449 689L120 692C120 645 117 606 109 533L135 533C138 555 144 580 156 619L162 639C218 649 256 652 342 652L522 652L20 19Z" stroke="rgb(0,0,0)" stroke-opacity="1" stroke-width="8" fill="rgb(0,0,0)" fill-opacity="1"></path></g></g><g><g><g><g><g transform="matrix(1,0,0,1,267.7083740234375,81.99668701171875)"><path transform="matrix(0.00833,0,0,-0.00833,0,0)" d="M263 689C108 689 29 566 29 324C29 207 50 106 85 57C120 8 176 -20 238 -20C389 -20 465 110 465 366C465 585 400 689 263 689ZM245 654C342 654 381 556 381 316C381 103 343 15 251 15C154 15 113 116 113 360C113 571 150 654 245 654Z" stroke="rgb(0,0,0)" stroke-opacity="1" stroke-width="8" fill="rgb(0,0,0)" fill-opacity="1"></path></g></g></g></g></g></g></g><g><g><g><g transform="matrix(1,0,0,1,263.0364990234375,98.51459350585938)"><path transform="matrix(0.0119,0,0,-0.0119,0,0)" d="M16 23L16 -3C203 -3 203 0 239 0C275 0 275 -3 468 -3L468 82C353 77 307 81 122 77L304 270C401 373 431 428 431 503C431 618 353 689 226 689C154 689 105 669 56 619L39 483L68 483L81 529C97 587 133 612 200 612C286 612 341 558 341 473C341 398 299 324 186 204Z" stroke="rgb(0,0,0)" stroke-opacity="1" stroke-width="8" fill="rgb(0,0,0)" fill-opacity="1"></path></g></g></g></g><line style="fill:none;stroke-width:1px;stroke:rgb(0, 0, 0);" x1="259.4271240234375" y1="86.35418701171875" x2="272.5833740234375" y2="86.35418701171875"></line></g></g></g><g><g><g><g transform="matrix(1,0,0,1,113,24.56668701171875)"><path transform="matrix(0.0119,0,0,-0.0119,0,0)" d="M251 722L239 733C187 707 151 698 79 691L75 670L123 670C147 670 157 663 157 648C157 645 157 640 154 622C143 567 70 182 55 132C42 82 36 52 36 31C36 6 47 -9 66 -9C92 -9 128 12 226 85L216 103L190 86C161 67 139 56 129 56C122 56 116 66 116 76C116 82 117 89 120 104Z" stroke="rgb(0,0,0)" stroke-opacity="1" stroke-width="8" fill="rgb(0,0,0)" fill-opacity="1"></path></g></g><g><g><g><g><g transform="matrix(1,0,0,1,116.65106201171875,26.99668701171875)"><path transform="matrix(0.00833,0,0,-0.00833,0,0)" d="M263 689C108 689 29 566 29 324C29 207 50 106 85 57C120 8 176 -20 238 -20C389 -20 465 110 465 366C465 585 400 689 263 689ZM245 654C342 654 381 556 381 316C381 103 343 15 251 15C154 15 113 116 113 360C113 571 150 654 245 654Z" stroke="rgb(0,0,0)" stroke-opacity="1" stroke-width="8" fill="rgb(0,0,0)" fill-opacity="1"></path></g></g></g></g></g><g><g transform="matrix(1,0,0,1,125.09375,24.56668701171875)"><path transform="matrix(0.0119,0,0,-0.0119,0,0)" d="M604 347L604 406L65 406L65 347ZM604 134L604 193L65 193L65 134Z" stroke="rgb(0,0,0)" stroke-opacity="1" stroke-width="8" fill="rgb(0,0,0)" fill-opacity="1"></path></g></g><g><g transform="matrix(1,0,0,1,136.609375,24.56668701171875)"><path transform="matrix(0.0119,0,0,-0.0119,0,0)" d="M209 656L209 648C211 643 213 639 218 637C235 642 266 653 282 653C334 653 343 500 347 460C219 320 120 161 25 -2L35 -16C60 -5 85 4 111 13C154 159 261 308 353 428C361 365 384 13 401 -6C456 -42 528 44 570 74L570 87L558 87L558 88C541 77 512 55 491 55C452 55 444 188 439 219C424 326 399 672 383 689C347 728 251 667 209 656Z" stroke="rgb(0,0,0)" stroke-opacity="1" stroke-width="8" fill="rgb(0,0,0)" fill-opacity="1"></path></g></g><g><g><g><g><g transform="matrix(1,0,0,1,144.3177490234375,26.99668701171875)"><path transform="matrix(0.00833,0,0,-0.00833,0,0)" d="M263 689C108 689 29 566 29 324C29 207 50 106 85 57C120 8 176 -20 238 -20C389 -20 465 110 465 366C465 585 400 689 263 689ZM245 654C342 654 381 556 381 316C381 103 343 15 251 15C154 15 113 116 113 360C113 571 150 654 245 654Z" stroke="rgb(0,0,0)" stroke-opacity="1" stroke-width="8" fill="rgb(0,0,0)" fill-opacity="1"></path></g></g></g></g></g></g></g><g><g><g><g><g><g><g transform="matrix(1,0,0,1,12,90.26668701171874)"><path transform="matrix(0.0136,0,0,-0.0136,0,0)" d="M310 96L239 624C237 646 241 661 281 662L323 664L323 692L282 691C245 690 217 689 199 689C181 689 153 690 116 691L75 692L75 664L100 662C144 659 152 651 159 614L247 -8L296 -8L674 611C699 651 707 658 736 662L754 664L754 692L724 691C697 690 674 689 658 689C648 689 621 690 580 691L534 692L534 664L560 662C598 659 617 649 617 630C617 619 613 608 601 588Z" stroke="rgb(0,0,0)" stroke-opacity="1" stroke-width="8" fill="rgb(0,0,0)" fill-opacity="1"></path></g></g></g></g><svg x="12" overflow="visible" y="71" height="7" width="9.807291984558105"><path d="M0.00,6.24 C 0.61 3.91, 2.45 3.91, 4.90 5.66  S 9.19 5.08, 9.81 3.91" style="fill:none;fill-opacity:1;stroke-width:1px;stroke:rgb(0,0,0);stroke-opacity:1;"></path></svg></g><g><g><g><g><g transform="matrix(1,0,0,1,22.21356201171875,95.566875)"><path transform="matrix(0.009519999999999999,0,0,-0.009519999999999999,0,0)" d="M31 148C26 97 20 62 9 16C47 -2 81 -11 116 -11C165 -11 211 7 262 47C313 87 334 124 334 174C334 228 302 257 228 271L185 279C125 290 106 307 106 348C106 401 151 442 208 442C249 442 287 424 303 397L303 342L326 342C330 377 334 404 345 455C306 474 278 482 245 482C193 482 132 452 84 404C58 377 47 352 47 316C47 260 78 228 144 215L207 203C251 195 267 177 267 138C267 73 221 29 150 29C115 29 84 40 56 64L56 148ZM651 689C496 689 417 566 417 324C417 207 438 106 473 57C508 8 564 -20 626 -20C777 -20 853 110 853 366C853 585 788 689 651 689ZM633 654C730 654 769 556 769 316C769 103 731 15 639 15C542 15 501 116 501 360C501 571 538 654 633 654Z" stroke="rgb(0,0,0)" stroke-opacity="1" stroke-width="8" fill="rgb(0,0,0)" fill-opacity="1"></path></g></g></g></g></g></g></g></svg>
</svg>
